<svg width="24" height="25" viewBox="0 0 24 25" fill="none" xmlns="http://www.w3.org/2000/svg">
<g clip-path="url(#clip0_1577_18438)">
<path d="M16.6699 13.5231C18.0399 14.4531 18.9999 15.7131 18.9999 17.3931V20.3931H22.9999V17.3931C22.9999 15.2131 19.4299 13.9231 16.6699 13.5231Z" fill="white"/>
<path d="M14.9999 12.3931C17.2099 12.3931 18.9999 10.6031 18.9999 8.39307C18.9999 6.18307 17.2099 4.39307 14.9999 4.39307C14.5299 4.39307 14.0899 4.49307 13.6699 4.63307C14.4999 5.66307 14.9999 6.97307 14.9999 8.39307C14.9999 9.81307 14.4999 11.1231 13.6699 12.1531C14.0899 12.2931 14.5299 12.3931 14.9999 12.3931Z" fill="white"/>
<path d="M9 12.3931C11.21 12.3931 13 10.6031 13 8.39307C13 6.18307 11.21 4.39307 9 4.39307C6.79 4.39307 5 6.18307 5 8.39307C5 10.6031 6.79 12.3931 9 12.3931ZM9 6.39307C10.1 6.39307 11 7.29307 11 8.39307C11 9.49307 10.1 10.3931 9 10.3931C7.9 10.3931 7 9.49307 7 8.39307C7 7.29307 7.9 6.39307 9 6.39307Z" fill="white"/>
<path d="M9 13.3931C6.33 13.3931 1 14.7331 1 17.3931V20.3931H17V17.3931C17 14.7331 11.67 13.3931 9 13.3931ZM15 18.3931H3V17.4031C3.2 16.6831 6.3 15.3931 9 15.3931C11.7 15.3931 14.8 16.6831 15 17.3931V18.3931Z" fill="white"/>
</g>
<defs>
<clipPath id="clip0_1577_18438">
<rect width="24" height="24" fill="white" transform="translate(0 0.393066)"/>
</clipPath>
</defs>
</svg>
