<svg width="24" height="25" viewBox="0 0 24 25" fill="none" xmlns="http://www.w3.org/2000/svg">
<g clip-path="url(#clip0_1577_18434)">
<path d="M12 6.29307C13.16 6.29307 14.1 7.23307 14.1 8.39307C14.1 9.55307 13.16 10.4931 12 10.4931C10.84 10.4931 9.9 9.55307 9.9 8.39307C9.9 7.23307 10.84 6.29307 12 6.29307ZM12 15.2931C14.97 15.2931 18.1 16.7531 18.1 17.3931V18.4931H5.9V17.3931C5.9 16.7531 9.03 15.2931 12 15.2931ZM12 4.39307C9.79 4.39307 8 6.18307 8 8.39307C8 10.6031 9.79 12.3931 12 12.3931C14.21 12.3931 16 10.6031 16 8.39307C16 6.18307 14.21 4.39307 12 4.39307ZM12 13.3931C9.33 13.3931 4 14.7331 4 17.3931V19.3931C4 19.9431 4.45 20.3931 5 20.3931H19C19.55 20.3931 20 19.9431 20 19.3931V17.3931C20 14.7331 14.67 13.3931 12 13.3931Z" fill="white"/>
</g>
<defs>
<clipPath id="clip0_1577_18434">
<rect width="24" height="24" fill="white" transform="translate(0 0.393066)"/>
</clipPath>
</defs>
</svg>
