<svg width="267" height="34" viewBox="0 0 267 34" fill="none" xmlns="http://www.w3.org/2000/svg">
<path d="M46.5982 20.9699C47.309 20.9699 48.0037 20.734 48.5946 20.292C49.1854 19.85 49.6457 19.2218 49.9174 18.487C50.189 17.7521 50.2598 16.9437 50.1206 16.1638C49.9814 15.384 49.6386 14.6679 49.1355 14.1062C48.6324 13.5444 47.9918 13.1623 47.2945 13.0082C46.5973 12.8541 45.8748 12.9348 45.2186 13.2402C44.5624 13.5456 44.002 14.062 43.6082 14.724C43.2144 15.386 43.005 16.1638 43.0064 16.9591C43.0083 18.0235 43.3876 19.0436 44.061 19.7956C44.7344 20.5476 45.6469 20.9699 46.5982 20.9699Z" fill="white"/>
<path d="M57.8247 16.9603C57.8247 17.7551 58.0353 18.5322 58.43 19.1931C58.8248 19.854 59.3857 20.3691 60.042 20.6733C60.6984 20.9775 61.4206 21.0571 62.1174 20.902C62.8141 20.7469 63.4541 20.3641 63.9564 19.8021C64.4588 19.24 64.8009 18.524 64.9395 17.7443C65.078 16.9647 65.0069 16.1567 64.7351 15.4223C64.4632 14.6879 64.0028 14.0602 63.4121 13.6186C62.8214 13.177 62.127 12.9414 61.4166 12.9414C60.4639 12.9414 59.5503 13.3647 58.8767 14.1185C58.2032 14.8722 57.8247 15.8944 57.8247 16.9603Z" fill="white"/>
<path d="M43.0063 4.6258C43.0063 5.42073 43.217 6.19775 43.6117 6.8586C44.0064 7.51953 44.5674 8.03467 45.2237 8.33886C45.88 8.64305 46.6022 8.72262 47.299 8.56755C47.9957 8.41249 48.6358 8.02971 49.1381 7.46762C49.6404 6.90562 49.9825 6.18945 50.1211 5.40991C50.2597 4.63028 50.1886 3.82217 49.9167 3.08786C49.6448 2.35346 49.1844 1.72581 48.5937 1.28422C48.0031 0.842618 47.3087 0.606848 46.5982 0.606848C45.6456 0.606848 44.732 1.0303 44.0584 1.78398C43.3848 2.53774 43.0063 3.55997 43.0063 4.6258Z" fill="white"/>
<path d="M35.1754 16.9591C35.1769 16.1638 34.9674 15.386 34.5736 14.724C34.1798 14.062 33.6194 13.5456 32.9632 13.2402C32.307 12.9348 31.5845 12.8541 30.8873 13.0082C30.1901 13.1623 29.5494 13.5444 29.0463 14.1062C28.5433 14.6679 28.2004 15.384 28.0613 16.1638C27.922 16.9437 27.9928 17.7521 28.2644 18.487C28.5361 19.2218 28.9964 19.85 29.5872 20.292C30.1781 20.734 30.8728 20.9699 31.5836 20.9699C32.5349 20.9699 33.4474 20.5476 34.1209 19.7956C34.7942 19.0436 35.1735 18.0235 35.1754 16.9591Z" fill="white"/>
<path d="M46.1837 25.3552C45.4732 25.3552 44.7788 25.5909 44.1881 26.0325C43.5975 26.4741 43.1371 27.1018 42.8652 27.8362C42.5933 28.5705 42.5222 29.3786 42.6608 30.1582C42.7994 30.9378 43.1415 31.6539 43.6439 32.216C44.1461 32.778 44.7861 33.1608 45.4829 33.3158C46.1797 33.4709 46.9019 33.3913 47.5582 33.0872C48.2145 32.783 48.7755 32.2678 49.1702 31.607C49.5648 30.946 49.7756 30.169 49.7756 29.3742C49.7756 28.3083 49.3971 27.286 48.7235 26.5323C48.0499 25.7786 47.1363 25.3552 46.1837 25.3552Z" fill="white"/>
<path d="M51.4915 7.81568C50.1987 9.25339 48.45 10.0604 46.6272 10.0604C44.8044 10.0604 43.0557 9.25339 41.7629 7.81568C41.26 7.25514 40.62 6.87399 39.9236 6.72015C39.2272 6.56639 38.5058 6.64693 37.8502 6.9516C37.1948 7.2562 36.6346 7.77134 36.2406 8.43194C35.8465 9.09247 35.6362 9.86884 35.6362 10.6631C35.6362 11.4573 35.8465 12.2337 36.2406 12.8942C36.6346 13.5548 37.1948 14.07 37.8502 14.3745C38.5058 14.6792 39.2272 14.7598 39.9236 14.606C40.62 14.4522 41.26 14.071 41.7629 13.5105C42.4024 12.7884 43.1635 12.2151 44.0022 11.8238C44.8408 11.4327 45.7404 11.2312 46.649 11.2312C47.5576 11.2312 48.4573 11.4327 49.2959 11.8238C50.1345 12.2151 50.8956 12.7884 51.5351 13.5105C52.038 14.071 52.6781 14.4522 53.3744 14.606C54.0708 14.7598 54.7923 14.6792 55.4478 14.3745C56.1033 14.07 56.6634 13.5548 57.0575 12.8942C57.4515 12.2337 57.6618 11.4573 57.6618 10.6631C57.6618 9.86884 57.4515 9.09247 57.0575 8.43194C56.6634 7.77134 56.1033 7.2562 55.4478 6.9516C54.7923 6.64693 54.0708 6.56639 53.3744 6.72015C52.6781 6.87399 52.038 7.25514 51.5351 7.81568H51.4915Z" fill="white"/>
<path d="M53.5856 19.384C52.6425 19.3883 51.7378 19.8026 51.0626 20.5392C49.7698 21.9769 48.021 22.7839 46.1983 22.7839C44.3755 22.7839 42.6268 21.9769 41.334 20.5392C40.8311 19.9787 40.191 19.5975 39.4947 19.4438C38.7983 19.2899 38.0768 19.3705 37.4214 19.6752C36.7658 19.9798 36.2057 20.4949 35.8116 21.1555C35.4176 21.816 35.2073 22.5925 35.2073 23.3867C35.2073 24.1809 35.4176 24.9572 35.8116 25.6178C36.2057 26.2784 36.7658 26.7935 37.4214 27.0982C38.0768 27.4028 38.7983 27.4833 39.4947 27.3296C40.191 27.1757 40.8311 26.7946 41.334 26.2341C41.9734 25.5131 42.734 24.9409 43.572 24.5504C44.41 24.1599 45.3087 23.9588 46.2164 23.9588C47.1242 23.9588 48.023 24.1599 48.861 24.5504C49.699 24.9409 50.4596 25.5131 51.0989 26.2341C51.5189 26.6968 52.0342 27.0368 52.5994 27.224C53.1645 27.4112 53.7621 27.44 54.3395 27.3077C54.9169 27.1754 55.4564 26.8862 55.9103 26.4655C56.3642 26.0448 56.7186 25.5057 56.9422 24.8955C57.1659 24.2853 57.252 23.623 57.1928 22.9669C57.1336 22.3107 56.9311 21.681 56.6029 21.1331C56.2748 20.5853 55.8313 20.1362 55.3114 19.8255C54.7916 19.5147 54.2113 19.3519 53.6219 19.3514L53.5856 19.384Z" fill="white"/>
<path d="M84.6411 16.0938V16.8555C84.6411 18.1523 84.4614 19.3164 84.1021 20.3477C83.7505 21.3789 83.2466 22.2578 82.5903 22.9844C81.9419 23.7109 81.1685 24.2695 80.27 24.6602C79.3794 25.043 78.3911 25.2344 77.3052 25.2344C76.2192 25.2344 75.2271 25.043 74.3286 24.6602C73.4302 24.2695 72.6489 23.7109 71.9849 22.9844C71.3286 22.2578 70.8208 21.3789 70.4614 20.3477C70.1021 19.3164 69.9224 18.1523 69.9224 16.8555V16.0938C69.9224 14.7969 70.1021 13.6328 70.4614 12.6016C70.8208 11.5625 71.3247 10.6797 71.9731 9.95312C72.6294 9.22656 73.4067 8.67188 74.3052 8.28906C75.2036 7.89844 76.1958 7.70312 77.2817 7.70312C78.3677 7.70312 79.3599 7.89844 80.2583 8.28906C81.1567 8.67188 81.9302 9.22656 82.5786 9.95312C83.2349 10.6797 83.7427 11.5625 84.1021 12.6016C84.4614 13.6328 84.6411 14.7969 84.6411 16.0938ZM80.7856 16.8555V16.0703C80.7856 15.2031 80.7075 14.4375 80.5513 13.7734C80.395 13.1016 80.1685 12.5391 79.8716 12.0859C79.5747 11.6328 79.2075 11.293 78.77 11.0664C78.3325 10.832 77.8364 10.7148 77.2817 10.7148C76.7036 10.7148 76.1997 10.832 75.77 11.0664C75.3403 11.293 74.9771 11.6328 74.6802 12.0859C74.3911 12.5391 74.1685 13.1016 74.0122 13.7734C73.8638 14.4375 73.7896 15.2031 73.7896 16.0703V16.8555C73.7896 17.7148 73.8638 18.4805 74.0122 19.1523C74.1685 19.8164 74.395 20.3789 74.6919 20.8398C74.9888 21.3008 75.3521 21.6484 75.7817 21.8828C76.2192 22.1172 76.7271 22.2344 77.3052 22.2344C77.8599 22.2344 78.3521 22.1172 78.7817 21.8828C79.2192 21.6484 79.5864 21.3008 79.8833 20.8398C80.1802 20.3789 80.4028 19.8164 80.5513 19.1523C80.7075 18.4805 80.7856 17.7148 80.7856 16.8555ZM93.8052 17.6289H89.4224L89.3989 15.0742H93.02C93.6606 15.0742 94.1802 14.9961 94.5786 14.8398C94.9849 14.6836 95.2817 14.457 95.4692 14.1602C95.6567 13.8555 95.7505 13.4805 95.7505 13.0352C95.7505 12.5273 95.6567 12.1172 95.4692 11.8047C95.2817 11.4922 94.9849 11.2656 94.5786 11.125C94.1802 10.9766 93.6646 10.9023 93.0317 10.9023H90.8052V25H86.9849V7.9375H93.0317C94.0552 7.9375 94.9692 8.03125 95.7739 8.21875C96.5786 8.40625 97.2622 8.69531 97.8247 9.08594C98.395 9.47656 98.8286 9.96484 99.1255 10.5508C99.4224 11.1367 99.5708 11.8281 99.5708 12.625C99.5708 13.3203 99.4146 13.9688 99.1021 14.5703C98.7974 15.1719 98.3052 15.6602 97.6255 16.0352C96.9458 16.4102 96.0356 16.6133 94.895 16.6445L93.8052 17.6289ZM93.6528 25H88.4497L89.8325 22.0469H93.6528C94.2388 22.0469 94.7153 21.9531 95.0825 21.7656C95.4497 21.5781 95.7192 21.3242 95.8911 21.0039C96.063 20.6836 96.1489 20.3242 96.1489 19.9258C96.1489 19.457 96.0669 19.0508 95.9028 18.707C95.7466 18.3633 95.4966 18.0977 95.1528 17.9102C94.8169 17.7227 94.3677 17.6289 93.8052 17.6289H90.3833L90.4067 15.0742H94.5903L95.481 16.082C96.5669 16.0586 97.4341 16.2344 98.0825 16.6094C98.7388 16.9766 99.2114 17.4609 99.5005 18.0625C99.7896 18.6641 99.9341 19.3008 99.9341 19.9727C99.9341 21.082 99.6958 22.0117 99.2192 22.7617C98.7427 23.5039 98.0356 24.0625 97.0981 24.4375C96.1685 24.8125 95.02 25 93.6528 25ZM107.809 25H104.059L104.083 22.0469H107.809C108.661 22.0469 109.379 21.8516 109.965 21.4609C110.551 21.0625 110.997 20.4766 111.301 19.7031C111.606 18.9219 111.758 17.9727 111.758 16.8555V16.0703C111.758 15.2266 111.672 14.4844 111.5 13.8438C111.329 13.1953 111.075 12.6523 110.739 12.2148C110.403 11.7773 109.985 11.4492 109.485 11.2305C108.993 11.0117 108.426 10.9023 107.786 10.9023H103.989V7.9375H107.786C108.942 7.9375 109.997 8.13281 110.95 8.52344C111.911 8.91406 112.739 9.47266 113.434 10.1992C114.137 10.9258 114.68 11.7852 115.063 12.7773C115.446 13.7695 115.637 14.875 115.637 16.0938V16.8555C115.637 18.0664 115.446 19.1719 115.063 20.1719C114.68 21.1641 114.137 22.0234 113.434 22.75C112.739 23.4688 111.915 24.0234 110.961 24.4141C110.008 24.8047 108.958 25 107.809 25ZM106.227 7.9375V25H102.407V7.9375H106.227ZM125.774 7.9375H128.938L133.04 20.1367L137.129 7.9375H140.293L134.317 25H131.75L125.774 7.9375ZM123.946 7.9375H127.168L127.766 20.582V25H123.946V7.9375ZM138.899 7.9375H142.133V25H138.301V20.582L138.899 7.9375ZM152.27 11.1836L147.864 25H143.786L150.102 7.9375H152.68L152.27 11.1836ZM155.926 25L151.508 11.1836L151.051 7.9375H153.665L160.004 25H155.926ZM155.739 18.6484V21.6016H146.844V18.6484H155.739ZM175.497 7.9375V25H171.688L165.243 13.9727V25H161.422V7.9375H165.243L171.7 18.9648V7.9375H175.497ZM185.622 11.1836L181.215 25H177.137L183.454 7.9375H186.032L185.622 11.1836ZM189.278 25L184.86 11.1836L184.403 7.9375H187.016L193.356 25H189.278ZM189.09 18.6484V21.6016H180.196V18.6484H189.09ZM208.286 15.9883V22.8672C208.004 23.1875 207.575 23.5312 206.997 23.8984C206.426 24.2656 205.696 24.582 204.805 24.8477C203.915 25.1055 202.852 25.2344 201.618 25.2344C200.5 25.2344 199.485 25.0547 198.571 24.6953C197.657 24.3281 196.872 23.793 196.215 23.0898C195.559 22.3789 195.051 21.5117 194.692 20.4883C194.34 19.4648 194.165 18.293 194.165 16.9727V15.9648C194.165 14.6445 194.34 13.4727 194.692 12.4492C195.043 11.4258 195.54 10.5625 196.18 9.85938C196.821 9.14844 197.583 8.60938 198.465 8.24219C199.348 7.875 200.325 7.69141 201.395 7.69141C202.918 7.69141 204.165 7.9375 205.133 8.42969C206.102 8.91406 206.836 9.58594 207.336 10.4453C207.844 11.3047 208.157 12.293 208.274 13.4102H204.594C204.516 12.8398 204.36 12.3477 204.125 11.9336C203.899 11.5195 203.575 11.2031 203.153 10.9844C202.731 10.7578 202.184 10.6445 201.512 10.6445C200.973 10.6445 200.485 10.7578 200.047 10.9844C199.618 11.2031 199.254 11.5352 198.958 11.9805C198.661 12.4258 198.434 12.9805 198.278 13.6445C198.122 14.3008 198.043 15.0664 198.043 15.9414V16.9727C198.043 17.8477 198.122 18.6172 198.278 19.2812C198.442 19.9453 198.68 20.5 198.993 20.9453C199.305 21.3828 199.7 21.7148 200.176 21.9414C200.661 22.168 201.223 22.2812 201.864 22.2812C202.364 22.2812 202.786 22.2422 203.129 22.1641C203.473 22.0781 203.754 21.9727 203.973 21.8477C204.192 21.7148 204.356 21.5938 204.465 21.4844V18.6484H201.43V15.9883H208.286ZM222.5 22.0469V25H213.418V22.0469H222.5ZM214.719 7.9375V25H210.899V7.9375H214.719ZM221.329 14.8047V17.6641H213.418V14.8047H221.329ZM222.512 7.9375V10.9023H213.418V7.9375H222.512ZM224.375 7.9375H230.926C232.231 7.9375 233.36 8.13281 234.313 8.52344C235.274 8.91406 236.012 9.49219 236.528 10.2578C237.043 11.0234 237.301 11.9688 237.301 13.0938C237.301 14.0312 237.149 14.8281 236.844 15.4844C236.54 16.1406 236.11 16.6836 235.555 17.1133C235.008 17.543 234.368 17.8906 233.633 18.1562L232.391 18.8359H226.813L226.79 15.8711H230.938C231.508 15.8711 231.981 15.7695 232.356 15.5664C232.731 15.3633 233.012 15.0781 233.2 14.7109C233.395 14.3359 233.493 13.8984 233.493 13.3984C233.493 12.8828 233.395 12.4375 233.2 12.0625C233.004 11.6875 232.715 11.4023 232.333 11.207C231.958 11.0039 231.489 10.9023 230.926 10.9023H228.196V25H224.375V7.9375ZM233.821 25L229.989 17.418L234.02 17.4062L237.911 24.8242V25H233.821Z" fill="white"/>
</svg>
